<?xml version="1.0" encoding="utf-8"?>
<!-- Generator: Adobe Illustrator 19.2.0, SVG Export Plug-In . SVG Version: 6.00 Build 0)  -->
<svg version="1.1" id="Layer_1" xmlns="http://www.w3.org/2000/svg" xmlns:xlink="http://www.w3.org/1999/xlink" x="0px" y="0px"
	 viewBox="0 0 612 792" style="enable-background:new 0 0 612 792;" xml:space="preserve">
<style type="text/css">
	.st0{fill:#2B6FB4;}
	.st1{fill:#FFFFFF;}
	.st2{fill:none;}
</style>
<circle class="st0" cx="306" cy="356.6" r="300.6"/>
<path class="st1" d="M292.5,417.7v14.9h26.9v-14.9c-4.4,0.7-8.8,1.2-13.5,1.2C301.6,419,297.2,418.5,292.5,417.7L292.5,417.7z"/>
<path class="st1" d="M432,396.2l-55-16.4c-3.7,4.4-7.3,8.6-11,12.2l14.4,4.4c-9.5,38.2-35.5,142.4-42.8,179.5
	c-5.9,1.5-11.7,2.4-18.1,3.2l15.4-36.7l-14.9-99.8h-27.1l-14.9,99.8l15.4,36.7c-6.4-0.5-12.2-1.7-18.3-3.2
	c-7.3-37.2-33.3-141.1-42.8-179.5l14.4-4.4c-3.9-3.7-7.6-7.8-11.3-12.2l-55,16.4c-12.2,3.7-20.8,14.9-20.8,27.9v24.2
	c0,81,65.5,146.5,146.5,146.5s146.5-65.5,146.5-146.5v-24.2C452.8,411.1,444.2,399.9,432,396.2L432,396.2z"/>
<path class="st1" d="M400.4,261c2.7-17.1,1.5-35.5-1-49.7c-5.1-30.6-17.1-52.1-17.1-52.1l-5.6,23.7l-0.5,2.4c0-1-0.2-2-0.2-2.9
	c-1.5-13-7.1-30.6-7.1-30.6c-13,6.1-34.5,5.6-34.5,5.6c5.9-4.4,21.5-8.8,21.5-8.8c-38.6-12.2-63.3,0.5-75.3,10
	c-2.7,2-4.6,3.9-6.1,5.4l4.4-5.1l9-10.5c-18.3,1.7-31.8,14.2-39.9,24.5c-5.9,7.3-9,13.5-9,13.5l1.5-8.1l3.4-17.4
	c-12.7,10-20.3,24.9-24.9,39.9c-7.1,22.7-7.8,50.1-7.6,59.9c-7.3,2.9-13,9.8-15.2,19.1c-2.2,8.8-1.7,18.8,1.7,28.6
	c5.4,15.4,16.6,26.7,29.1,29.1c15.4,33,43.5,66.5,79,66.5s63.8-33.8,79-66.5c12.2-2.4,23.7-13.7,29.1-29.1
	C421.2,287.6,415.4,267.1,400.4,261L400.4,261z M399.9,303.5c-4.4,12.7-13.5,19.6-19.8,19.6c-3.7,0.5-5.9,1.7-7.1,4.4
	c-13,29.8-37.4,61.6-67.3,61.6s-54.3-31.8-67.3-61.6c-1.2-2.7-4.2-4.4-7.1-4.4c-6.1,0-15.2-6.8-19.6-19.6
	c-2.4-6.8-2.9-13.9-1.5-19.8c0.7-2.7,2.7-7.6,6.8-9c0.5-0.2,1.5-0.2,2-0.2c3.7-0.2,6.6-3.4,6.8-7.1c0.2-3.4,0.5-6.8,1.5-10
	c11-43.8,49.4-47,49.4-47c-6.8,16.1-18.1,23-18.1,23c36.7-14.9,48.2-31.1,48.2-31.1c24.5,33.8,58,48.7,77.5,54.5
	c0.5,3.4,1.2,6.8,1.5,10.5c0.2,3.7,2.9,6.6,6.8,7.1c0.5,0,1.5,0.2,2,0.2C400.9,276.9,404.8,289.3,399.9,303.5L399.9,303.5z"/>
<rect x="159.2" y="143.6" class="st2" width="293.5" height="451.8"/>
</svg>
