<?xml version="1.0" encoding="utf-8"?>
<!-- Generator: Adobe Illustrator 19.2.0, SVG Export Plug-In . SVG Version: 6.00 Build 0)  -->
<svg version="1.1" id="Layer_1" xmlns="http://www.w3.org/2000/svg" xmlns:xlink="http://www.w3.org/1999/xlink" x="0px" y="0px"
	 viewBox="0 0 612 792" style="enable-background:new 0 0 612 792;" xml:space="preserve">
<style type="text/css">
	.st0{fill:none;stroke:#FFFFFF;stroke-width:30;stroke-miterlimit:10;}
</style>
<g>
	<path class="st0" d="M67.9,183.5l201.4,161.1c10.1,7.6,22.7,10.1,35.2,10.1c12.6,0,25.2-2.5,35.2-10.1l201.4-161.1
		c15.1-12.6,12.6-22.7-7.6-22.7H78C55.4,160.8,50.3,170.9,67.9,183.5L67.9,183.5z"/>
	<path class="st0" d="M553.9,226.3L332.3,395c-7.6,5-20.1,10.1-30.2,10.1c-10.1,0-22.7-2.5-30.2-10.1L50.3,226.3
		c-17.6-12.6-30.2-5-30.2,15.1v274.4c0,20.1,17.6,37.8,37.8,37.8h485.9c20.1,0,37.8-17.6,37.8-37.8V241.4
		C584.1,221.2,571.5,213.7,553.9,226.3L553.9,226.3z"/>
</g>
</svg>
