<?xml version="1.0" encoding="utf-8"?>
<!-- Generator: Adobe Illustrator 19.2.0, SVG Export Plug-In . SVG Version: 6.00 Build 0)  -->
<svg version="1.1" id="Layer_1" xmlns="http://www.w3.org/2000/svg" xmlns:xlink="http://www.w3.org/1999/xlink" x="0px" y="0px"
	 viewBox="0 0 612 792" style="enable-background:new 0 0 612 792;" xml:space="preserve">
<style type="text/css">
	.st0{fill:none;}
	.st1{fill:#2B6FB4;}
</style>
<rect x="160.1" y="143.3" class="st0" width="291.9" height="449.2"/>
<g>
	<path class="st1" d="M409.8,640.7c-2.9,1-5.8,2.4-9,2.9c-11.7,1.9-19-3.9-19-15.8c-0.2-21.9-0.2-43.8,0.2-65.9
		c0.5-25.3-0.2-50.1-19.5-71c11.4-1.9,21.6-3.4,31.6-5.8c65.9-15.1,100.2-56.7,104.6-125.7c2.2-35-4.1-67.4-27.5-94.9
		c-1.7-1.9-1.7-6.3-1-9.2c6.3-22.9,4.4-45.2-2.9-67.6c-1.7-5.6-4.9-7.3-10.2-7.1c-19.5,1-37,7.8-52.8,18.2
		c-15.1,10.2-29.2,12.4-46.9,8.3c-39.4-9-79-6.3-118.4,2.9c-4.4,1-10.5-0.2-14.6-2.7c-18.5-10.7-37-21.4-58.1-25.5
		c-16.5-3.2-18-2.4-22.4,13.6c-5.6,19.9-6.1,40.1-0.5,60.3c0.7,2.9,0,7.5-1.9,9.7C98,314.1,113.8,406,143,441.3
		c22.9,27.5,53.3,39.6,86.8,46c5.8,1,11.7,1.9,17.5,2.9c-5.1,13.1-9.5,25.5-14.8,37.7c-1,2.4-4.1,4.4-6.8,5.4
		c-33.1,12.9-61.5,3.4-80.5-26.5c-10.2-16.1-23.1-28-42.6-31.4c-0.7,0-1.2-0.5-1.7-0.2c-5.1,1.5-10.5,2.9-15.6,4.1
		c2.9,4.1,4.9,9.5,9,11.9c16.3,10.5,27,25.1,34.1,42.6c11.2,27.5,32.6,39.6,60.6,41.8c13.6,1.2,27.5,0.2,42.3,0.2
		c0,17,0.7,36.5-0.2,55.7c-0.5,10.5-10.9,14.6-23.3,10.2c-33.3-11.4-64-27.7-90.7-50.6c-96.1-82.7-133-187.3-101.2-309.6
		C47.6,159.4,130.6,84.7,254.6,61.1c171.5-32.3,334.2,92.4,351.2,266.6C619.9,465.4,539.2,593.8,409.8,640.7z M248,489.9
		c0,0.2-0.2,0.5-0.2,0.7c0.2,0,0.7,0,1,0.2C249,490.6,249.3,491.1,248,489.9z M170.5,544.2c2.7,1.7,5.4,3.6,8,4.6
		c1,0.2,2.9-1.9,6.6-4.6c-4.9-1.9-7.5-3.4-10.7-3.9C173.4,540,171.9,542.7,170.5,544.2z M195,548.3c0.5,1.7,3.9,4.1,6.1,3.9
		c1.9,0,3.9-2.7,6.1-4.4c-1.9-1.7-3.6-3.4-9.2-8.5C196.5,543.2,194.5,546.1,195,548.3z M224.9,541c-2.4,0.5-4.6,2.9-7.1,4.6
		c1.5,1.7,2.7,3.4,4.9,6.1c2.9-2.7,5.1-4.6,7.1-6.6C228.1,543.7,226.2,540.7,224.9,541z M150.5,531c1.5,2.7,3.6,4.9,6.6,8.8
		c1.9-3.2,4.1-5.6,3.6-6.1c-1.9-2.4-4.4-4.4-6.8-6.3C153.7,527.1,150.3,530.3,150.5,531z"/>
</g>
</svg>
