<?xml version="1.0" encoding="utf-8"?>
<!-- Generator: Adobe Illustrator 19.2.0, SVG Export Plug-In . SVG Version: 6.00 Build 0)  -->
<svg version="1.1" id="Layer_1" xmlns="http://www.w3.org/2000/svg" xmlns:xlink="http://www.w3.org/1999/xlink" x="0px" y="0px"
	 viewBox="0 0 612 792" style="enable-background:new 0 0 612 792;" xml:space="preserve">
<style type="text/css">
	.st0{fill:#2B6FB4;}
	.st1{fill:#FFFFFF;}
</style>
<circle class="st0" cx="306" cy="351" r="301"/>
<g>
	<rect x="145.8" y="279.7" class="st1" width="71.3" height="249.1"/>
	<path class="st1" d="M181.6,244.2c-19.6,0-35.5-15.9-35.5-35.5s15.9-35.5,35.5-35.5c19.6,0,35.5,15.9,35.5,35.5
		S201.2,244.2,181.6,244.2L181.6,244.2z"/>
	<path class="st1" d="M466.2,528.8h-71.3V386.5c0-19.6-15.9-35.5-35.5-35.5s-35.5,15.9-35.5,35.5v142.3h-71.3V279.7h71.3v44.1
		c14.7-20.1,37.2-44.1,62.2-44.1c44.3,0,80.1,39.9,80.1,88.9V528.8z"/>
	<path class="st1" d="M466.2,528.8"/>
</g>
</svg>
